<svg width="1080" height="600" xmlns="http://www.w3.org/2000/svg">
  <defs>
    <linearGradient id="grd0" x1="0" y1="0" x2="0" y2="25%">
      <stop offset="0%" stop-color="#e0f4ff" />
      <stop offset="100%" stop-color="#b1e3ff" />
    </linearGradient><linearGradient id="grd1" x1="0" y1="0" x2="0" y2="25%">
      <stop offset="0%" stop-color="#76ccfd" />
      <stop offset="100%" stop-color="#5fc5ff" />
    </linearGradient>
    <linearGradient id="grd2" x1="0" y1="0" x2="0" y2="30%">
      <stop offset="0%" stop-color="#2cb0fb" />
      <stop offset="100%" stop-color="#19abff" />
    </linearGradient>
    <linearGradient id="grd3" x1="0" y1="0" x2="0" y2="40%">
      <stop offset="0%" stop-color="#0b7fc1" />
      <stop offset="100%" stop-color="#0b7fc1" />
    </linearGradient>
    <linearGradient id="grd4" x1="0" y1="0" x2="0" y2="60%">
      <stop offset="0%" stop-color="#0c5985" />
      <stop offset="100%" stop-color="#0c5985" />
    </linearGradient>
    <linearGradient id="grd5" x1="0" y1="0" x2="0" y2="100%">
      <stop offset="0%" stop-color="#02293f" />
      <stop offset="100%" stop-color="#02293f" />
    </linearGradient>
  </defs>
  <path d="M0,0 h1080 v600 h-1080 z" fill="url(#grd0)" />
  <path d="M0,140 l36,-36 l36,36 l36,-36 l36,36 l36,-36 l36,36 l36,-36 l36,36 l36,-36 l36,36 l36,-36 l36,36 l36,-36 l36,36 l36,-36 l36,36 l36,-36 l36,36 l36,-36 l36,36 l36,-36 l36,36 l36,-36 l36,36 l36,-36 l36,36 l36,-36 l36,36 l36,-36 l36,36 V600 H0 z" fill="url(#grd1)" />
  <path d="M-45,165 l45,-45 l45,45 l45,-45 l45,45 l45,-45 l45,45 l45,-45 l45,45 l45,-45 l45,45 l45,-45 l45,45 l45,-45 l45,45 l45,-45 l45,45 l45,-45 l45,45 l45,-45 l45,45 l45,-45 l45,45 l45,-45 l45,45 l45,-45 V600 H0 z" fill="url(#grd2)" />
  <path d="M-20,205 l60,-60 l60,60 l60,-60 l60,60 l60,-60 l60,60 l60,-60 l60,60 l60,-60 l60,60 l60,-60 l60,60 l60,-60 l60,60 l60,-60 l60,60 l60,-60 l60,60 l60,-60 V600 H0 z" fill="url(#grd3)" />
  <path d="M-55,270 l90,-90 l90,90 l90,-90 l90,90 l90,-90 l90,90 l90,-90 l90,90 l90,-90 l90,90 l90,-90 l90,90 l90,-90 V600 H0 z" fill="url(#grd4)" />
  <path d="M-30,395 l135,-135 l135,135 l135,-135 l135,135 l135,-135 l135,135 l135,-135 l135,135 l135,-135 V600 H0 z" fill="url(#grd5)" />
</svg>
